# xmcd CD database file
#
# Track frame offsets:
#	150
#	22212
#	47185
#	70798
#	99810
#	121024
#	140253
#	159869
#	180790
#	212000
#	229418
#	264584
#	292960
#
# Disc length: 4181 seconds
#
# Revision: 0
# Processed by: cddbd v1.5.2PL0 Copyright (c) Steve Scherf et al.
# Submitted via: CDex 1.51
#
DISCID=a910530d
DTITLE=Rosanno Sportiello - Swingin' Duo By The Lago
DYEAR=1900
DGENRE=Jazz
TTITLE0=Rifftide
TTITLE1=Ask Me Now
TTITLE2=Th Man I Love
TTITLE3=Blue Jive Five
TTITLE4=You go To My Head
TTITLE5=Diga Diga Doo
TTITLE6=Imagination
TTITLE7=Lester Leaps In
TTITLE8=Chelsea Bridge
TTITLE9=Swingin' By The Lago
TTITLE10=After Supper
TTITLE11=Cherokee (Indian Love Song)
TTITLE12=Body And Soul
EXTD=
EXTT0=
EXTT1=
EXTT2=
EXTT3=
EXTT4=
EXTT5=
EXTT6=
EXTT7=
EXTT8=
EXTT9=
EXTT10=
EXTT11=
EXTT12=
PLAYORDER=
